<svg width="36" height="21" viewBox="0 0 36 21" fill="none" xmlns="http://www.w3.org/2000/svg">
  <g filter="url(#filter0_tab)">
    <!-- Outer box: Bounds [1.5, 34.5], Center 18.0. Path is centered. No change. -->
    <path d="M1 4C1 2.34315 2.34315 1 4 1H31C32.6569 1 34 2.34315 34 4V17C34 18.6569 32.6569 20 31 20H4C2.34315 20 1 18.6569 1 17V4Z" fill="white"/>
    <path d="M1 4C1 2.34315 2.34315 1 4 1H31C32.6569 1 34 2.34315 34 4V17C34 18.6569 32.6569 20 31 20H4C2.34315 20 1 18.6569 1 17V4Z" fill="black" fill-opacity="0.35"/>
  </g>
  <g filter="url(#filter1_tab)">
    <!-- Inner box: Shifted +0.5px right from [3, 32] to [3.5, 32.5] (width 29) to center at 18.0. -->
    <path d="M 3.5 5 C 3.5 3.89543 4.39543 3 5.5 3 H 30.5 C 31.6046 3 32.5 3.89543 32.5 5 V 16 C 32.5 17.1046 31.6046 18 30.5 18 H 5.5 C 4.39543 18 3.5 17.1046 3.5 16 V 5 Z" fill="white"/>
    <path d="M 3.5 5 C 3.5 3.89543 4.39543 3 5.5 3 H 30.5 C 31.6046 3 32.5 3.89543 32.5 5 V 16 C 32.5 17.1046 31.6046 18 30.5 18 H 5.5 C 4.39543 18 3.5 17.1046 3.5 16 V 5 Z" fill="black" fill-opacity="0.02"/>
  </g>
  <g fill="#575757">
    <!-- Letters are shifted +1.65px right to center the logical word bounds [5.0, 27.7] (width 22.7) to [6.65, 29.35] (center 18.0). Letter gaps are preserved. -->
    <!-- C (Shifted to x-range [6.65, 10.65]) -->
    <path fill-rule="evenodd" d="M 10.65 6 V 7.6 H 9.05 A 0.8 0.8 0 0 0 8.25 8.4 V 12.6 A 0.8 0.8 0 0 0 9.05 13.4 H 10.65 V 15 H 9.05 A 2.4 2.4 0 0 1 6.65 12.6 V 8.4 A 2.4 2.4 0 0 1 9.05 6 H 10.65 Z"/>
    
    <!-- T (Shifted to x-range [12.65, 17.15]) -->
    <path d="M 12.65 6 H 17.15 V 7.6 H 15.65 V 15 H 14.15 V 7.6 H 12.65 Z"/>
    
    <!-- R (Main path shifted to x-range [19.15, 24.05]) -->
    <path fill-rule="evenodd" d="M 19.15 6 H 21.85 A 2.2 2.2 0 0 1 24.05 8.2 A 2.2 2.2 0 0 1 22.15 10.3 L 23.85 15 H 22.15 L 20.65 10.4 V 15 H 19.15 Z M 20.65 7.5 V 8.9 H 21.85 A 0.7 0.7 0 0 0 21.85 7.5 Z"/>
    
    <!-- L (Shifted to x-range [25.85, 29.35]) -->
    <path d="M 25.85 6 H 27.35 V 13.5 H 29.35 V 15 H 25.85 Z"/>
  </g>
  <defs>
    <filter id="filter0_tab" x="0" y="0" width="36" height="21" filterUnits="userSpaceOnUse" color-interpolation-filters="sRGB">
      <feFlood flood-opacity="0" result="BackgroundImageFix"/>
      <feColorMatrix in="SourceAlpha" type="matrix" values="0 0 0 0 0 0 0 0 0 0 0 0 0 0 0 0 0 0 127 0" result="hardAlpha"/>
      <feOffset/>
      <feGaussianBlur stdDeviation="0.5"/>
      <feComposite in2="hardAlpha" operator="out"/>
      <feColorMatrix type="matrix" values="0 0 0 0 0 0 0 0 0 0 0 0 0 0 0 0 0 0 0.03 0"/>
      <feBlend mode="normal" in2="BackgroundImageFix" result="effect1_dropShadow_tab"/>
      <feBlend mode="normal" in="SourceGraphic" in2="effect1_dropShadow_tab" result="shape"/>
    </filter>
    <filter id="filter1_tab" x="2" y="2" width="34" height="17" filterUnits="userSpaceOnUse" color-interpolation-filters="sRGB">
      <feFlood flood-opacity="0" result="BackgroundImageFix"/>
      <feColorMatrix in="SourceAlpha" type="matrix" values="0 0 0 0 0 0 0 0 0 0 0 0 0 0 0 0 0 0 127 0" result="hardAlpha"/>
      <feOffset/>
      <feGaussianBlur stdDeviation="0.5"/>
      <feComposite in2="hardAlpha" operator="out"/>
      <feColorMatrix type="matrix" values="0 0 0 0 0 0 0 0 0 0 0 0 0 0 0 0 0 0 0.03 0"/>
      <feBlend mode="normal" in2="BackgroundImageFix" result="effect1_dropShadow_tab"/>
      <feBlend mode="normal" in="SourceGraphic" in2="effect1_dropShadow_tab" result="shape"/>
    </filter>
  </defs>
</svg>
