<svg width="29" height="21" viewBox="0 0 29 21" fill="none" xmlns="http://www.w3.org/2000/svg">
<g filter="url(#filter0_d)">
<path d="M1 4C1 2.34315 2.34315 1 4 1H25C26.6569 1 28 2.34315 28 4V17C28 18.6569 26.6569 20 25 20H4C2.34315 20 1 18.6569 1 17V4Z" fill="white"/>
<path d="M1 4C1 2.34315 2.34315 1 4 1H25C26.6569 1 28 2.34315 28 4V17C28 18.6569 26.6569 20 25 20H4C2.34315 20 1 18.6569 1 17V4Z" fill="black" fill-opacity="0.35"/>
</g>
<g filter="url(#filter1_d)">
<path d="M3 5C3 3.89543 3.89543 3 5 3H24C25.1046 3 26 3.89543 26 5V16C26 17.1046 25.1046 18 24 18H5C3.89543 18 3 17.1046 3 16V5Z" fill="white"/>
<path d="M3 5C3 3.89543 3.89543 3 5 3H24C25.1046 3 26 3.89543 26 5V16C26 17.1046 25.1046 18 24 18H5C3.89543 18 3 17.1046 3 16V5Z" fill="black" fill-opacity="0.02"/>
</g>
<text x="10.5" y="14.5" fill="#575757" font-family="Arial, Helvetica, sans-serif" font-weight="900" font-size="11" text-anchor="middle">D</text>
<g transform="translate(20, 10.5) scale(0.6) rotate(90) translate(-33, -17.5)">
<path d="M33.7782 10.2746L37.6776 13.5962C37.8926 13.7793 38 14.0192 38 14.2591C38 14.4991 37.8926 14.739 37.6776 14.9221C37.2478 15.2881 36.551 15.2881 36.1212 14.9221L34.1006 13.2008L34.1006 24.0625C34.1006 24.5803 33.6078 25 33 25C32.3922 25 31.8994 24.5803 31.8994 24.0625L31.8994 13.2008L29.8788 14.9221C29.449 15.2881 28.7522 15.2881 28.3224 14.9221C27.8925 14.5559 27.8925 13.9623 28.3224 13.5962L32.2218 10.2746C32.6516 9.90848 33.3484 9.90848 33.7782 10.2746Z" fill="#575757"/>
</g>
<defs>
<filter id="filter0_d" x="0" y="0" width="29" height="21" filterUnits="userSpaceOnUse" color-interpolation-filters="sRGB">
<feFlood flood-opacity="0" result="BackgroundImageFix"/>
<feColorMatrix in="SourceAlpha" type="matrix" values="0 0 0 0 0 0 0 0 0 0 0 0 0 0 0 0 0 0 127 0" result="hardAlpha"/>
<feOffset/>
<feGaussianBlur stdDeviation="0.5"/>
<feComposite in2="hardAlpha" operator="out"/>
<feColorMatrix type="matrix" values="0 0 0 0 0 0 0 0 0 0 0 0 0 0 0 0 0 0 0.03 0"/>
<feBlend mode="normal" in2="BackgroundImageFix" result="effect1_dropShadow_d"/>
<feBlend mode="normal" in="SourceGraphic" in2="effect1_dropShadow_d" result="shape"/>
</filter>
<filter id="filter1_d" x="2" y="2" width="25" height="17" filterUnits="userSpaceOnUse" color-interpolation-filters="sRGB">
<feFlood flood-opacity="0" result="BackgroundImageFix"/>
<feColorMatrix in="SourceAlpha" type="matrix" values="0 0 0 0 0 0 0 0 0 0 0 0 0 0 0 0 0 0 127 0" result="hardAlpha"/>
<feOffset/>
<feGaussianBlur stdDeviation="0.5"/>
<feComposite in2="hardAlpha" operator="out"/>
<feColorMatrix type="matrix" values="0 0 0 0 0 0 0 0 0 0 0 0 0 0 0 0 0 0 0.03 0"/>
<feBlend mode="normal" in2="BackgroundImageFix" result="effect1_dropShadow_d"/>
<feBlend mode="normal" in="SourceGraphic" in2="effect1_dropShadow_d" result="shape"/>
</filter>
</defs>
</svg>
