<svg width="21" height="21" viewBox="0 0 21 21" fill="none" xmlns="http://www.w3.org/2000/svg">
<g filter="url(#filter0_r_fixed)">
<path d="M1 4C1 2.34315 2.34315 1 4 1H17C18.6569 1 20 2.34315 20 4V17C20 18.6569 18.6569 20 17 20H4C2.34315 20 1 18.6569 1 17V4Z" fill="white"/>
<path d="M1 4C1 2.34315 2.34315 1 4 1H17C18.6569 1 20 2.34315 20 4V17C20 18.6569 18.6569 20 17 20H4C2.34315 20 1 18.6569 1 17V4Z" fill="black" fill-opacity="0.35"/>
</g>
<g filter="url(#filter1_r_fixed)">
<path d="M3 5C3 3.89543 3.89543 3 5 3H16C17.1046 3 18 3.89543 18 5V16C18 17.1046 17.1046 18 16 18H5C3.89543 18 3 17.1046 3 16V5Z" fill="white"/>
<path d="M3 5C3 3.89543 3.89543 3 5 3H16C17.1046 3 18 3.89543 18 5V16C18 17.1046 17.1046 18 16 18H5C3.89543 18 3 17.1046 3 16V5Z" fill="black" fill-opacity="0.02"/>
</g>
<!-- Shifted left along X to balance the heavy left vertical stem and right leg -->
<g transform="translate(9.8, 10.5)">
    <path fill-rule="evenodd" d="M -2.5 -4.5 H 1.0 C 3.0 -4.5, 4.0 -3.5, 4.0 -1.5 C 4.0 0.0, 3.2 1.0, 1.8 1.3 L 4.2 4.5 H 2.0 L 0.0 1.5 H -0.6 V 4.5 H -2.5 V -4.5 Z M -0.6 -2.6 V -0.4 H 1.0 C 1.8 -0.4, 2.1 -0.8, 2.1 -1.5 C 2.1 -2.2, 1.8 -2.6, 1.0 -2.6 H -0.6 Z" fill="#575757"/>
</g>
<defs>
<filter id="filter0_r_fixed" x="0" y="0" width="21" height="21" filterUnits="userSpaceOnUse" color-interpolation-filters="sRGB">
<feFlood flood-opacity="0" result="BackgroundImageFix"/>
<feColorMatrix in="SourceAlpha" type="matrix" values="0 0 0 0 0 0 0 0 0 0 0 0 0 0 0 0 0 0 127 0" result="hardAlpha"/>
<feOffset/>
<feGaussianBlur stdDeviation="0.5"/>
<feComposite in2="hardAlpha" operator="out"/>
<feColorMatrix type="matrix" values="0 0 0 0 0 0 0 0 0 0 0 0 0 0 0 0 0 0 0.03 0"/>
<feBlend mode="normal" in2="BackgroundImageFix" result="effect1_dropShadow_r"/>
<feBlend mode="normal" in="SourceGraphic" in2="effect1_dropShadow_r" result="shape"/>
</filter>
<filter id="filter1_r_fixed" x="2" y="2" width="17" height="17" filterUnits="userSpaceOnUse" color-interpolation-filters="sRGB">
<feFlood flood-opacity="0" result="BackgroundImageFix"/>
<feColorMatrix in="SourceAlpha" type="matrix" values="0 0 0 0 0 0 0 0 0 0 0 0 0 0 0 0 0 0 127 0" result="hardAlpha"/>
<feOffset/>
<feGaussianBlur stdDeviation="0.5"/>
<feComposite in2="hardAlpha" operator="out"/>
<feColorMatrix type="matrix" values="0 0 0 0 0 0 0 0 0 0 0 0 0 0 0 0 0 0 0.03 0"/>
<feBlend mode="normal" in2="BackgroundImageFix" result="effect1_dropShadow_r"/>
<feBlend mode="normal" in="SourceGraphic" in2="effect1_dropShadow_r" result="shape"/>
</filter>
</defs>
</svg>
