<svg width="30" height="21" viewBox="0 0 30 21" fill="none" xmlns="http://www.w3.org/2000/svg">
  <g filter="url(#filter0_tab)">
    <path d="M1 4C1 2.34315 2.34315 1 4 1H26C27.6569 1 29 2.34315 29 4V17C29 18.6569 27.6569 20 26 20H4C2.34315 20 1 18.6569 1 17V4Z" fill="white"/>
    <path d="M1 4C1 2.34315 2.34315 1 4 1H26C27.6569 1 29 2.34315 29 4V17C29 18.6569 27.6569 20 26 20H4C2.34315 20 1 18.6569 1 17V4Z" fill="black" fill-opacity="0.35"/>
  </g>
  <g filter="url(#filter1_tab)">
    <path d="M3 5C3 3.89543 3.89543 3 5 3H25C26.1046 3 27 3.89543 27 5V16C27 17.1046 26.1046 18 25 18H5C3.89543 18 3 17.1046 3 16V5Z" fill="white"/>
    <path d="M3 5C3 3.89543 3.89543 3 5 3H25C26.1046 3 27 3.89543 27 5V16C27 17.1046 26.1046 18 25 18H5C3.89543 18 3 17.1046 3 16V5Z" fill="black" fill-opacity="0.02"/>
  </g>
  <g fill="#575757">
    <!-- T -->
    <path d="M 5.475 6 H 10.975 V 7.9 H 9.175 V 15 H 7.275 V 7.9 H 5.475 Z"/>
    
    <!-- A -->
    <path fill-rule="evenodd" d="M 13.6 6 L 11.1 15 H 13.1 L 13.6 13 H 15.6 L 16.1 15 H 18.1 L 15.6 6 Z M 13.9 11.2 H 15.3 L 14.6 8.5 Z"/>
    
    <!-- B -->
    <path fill-rule="evenodd" d="M 19.2 6 H 22.2 A 2.1 2.1 0 0 1 22.2 10.2 A 2.4 2.4 0 0 1 22.2 15 H 19.2 Z M 21.1 7.9 V 9.3 H 21.7 A 0.7 0.7 0 0 0 21.7 7.9 H 21.1 Z M 21.1 11.1 V 13.1 H 21.7 A 1.0 1.0 0 0 0 21.7 11.1 H 21.1 Z"/>
  </g>
  <defs>
    <filter id="filter0_tab" x="0" y="0" width="30" height="21" filterUnits="userSpaceOnUse" color-interpolation-filters="sRGB">
      <feFlood flood-opacity="0" result="BackgroundImageFix"/>
      <feColorMatrix in="SourceAlpha" type="matrix" values="0 0 0 0 0 0 0 0 0 0 0 0 0 0 0 0 0 0 127 0" result="hardAlpha"/>
      <feOffset/>
      <feGaussianBlur stdDeviation="0.5"/>
      <feComposite in2="hardAlpha" operator="out"/>
      <feColorMatrix type="matrix" values="0 0 0 0 0 0 0 0 0 0 0 0 0 0 0 0 0 0 0.03 0"/>
      <feBlend mode="normal" in2="BackgroundImageFix" result="effect1_dropShadow_tab"/>
      <feBlend mode="normal" in="SourceGraphic" in2="effect1_dropShadow_tab" result="shape"/>
    </filter>
    <filter id="filter1_tab" x="2" y="2" width="26" height="17" filterUnits="userSpaceOnUse" color-interpolation-filters="sRGB">
      <feFlood flood-opacity="0" result="BackgroundImageFix"/>
      <feColorMatrix in="SourceAlpha" type="matrix" values="0 0 0 0 0 0 0 0 0 0 0 0 0 0 0 0 0 0 127 0" result="hardAlpha"/>
      <feOffset/>
      <feGaussianBlur stdDeviation="0.5"/>
      <feComposite in2="hardAlpha" operator="out"/>
      <feColorMatrix type="matrix" values="0 0 0 0 0 0 0 0 0 0 0 0 0 0 0 0 0 0 0.03 0"/>
      <feBlend mode="normal" in2="BackgroundImageFix" result="effect1_dropShadow_tab"/>
      <feBlend mode="normal" in="SourceGraphic" in2="effect1_dropShadow_tab" result="shape"/>
    </filter>
  </defs>
</svg>
